<svg width="18" height="17" viewBox="0 0 18 17" fill="none" xmlns="http://www.w3.org/2000/svg">
<path fill-rule="evenodd" clip-rule="evenodd" d="M15.9248 9.70835C15.7308 9.81799 15.5442 9.94049 15.3665 10.075C15.4289 10.3007 15.5097 10.5209 15.6082 10.7334L15.6183 10.7579C15.8916 11.4202 16.2272 12.2333 15.7415 12.9C15.2498 13.575 14.3498 13.5084 13.6248 13.4417C13.3946 13.4255 13.1634 13.4255 12.9332 13.4417C12.8795 13.5796 12.8118 13.8513 12.7624 14.0497L12.7624 14.0497L12.7498 14.1C12.5915 14.8084 12.3832 15.6917 11.5748 15.95C11.4483 15.9917 11.3163 16.0141 11.1832 16.0167C10.5669 15.9331 9.99857 15.6386 9.57484 15.1834C9.39679 14.9965 9.20455 14.8238 8.99984 14.6667C8.79746 14.8025 8.60528 14.9529 8.42484 15.1167L8.42158 15.1195C7.88046 15.5857 7.2066 16.1662 6.42484 15.95C5.6415 15.7334 5.40817 14.7834 5.24984 14.075L5.23729 14.0247C5.18786 13.8264 5.12014 13.5546 5.0665 13.4167C4.83623 13.4005 4.60511 13.4005 4.37484 13.4167C3.64984 13.4834 2.75817 13.5584 2.25817 12.875C1.77111 12.2094 2.09854 11.4172 2.37001 10.7604L2.3915 10.7084C2.48995 10.4959 2.57078 10.2757 2.63317 10.05C2.45544 9.91549 2.26891 9.79299 2.07484 9.68335C1.44984 9.33335 0.666504 8.83335 0.666504 8.00002C0.666504 7.16668 1.44984 6.66668 2.07484 6.33335C2.26891 6.22371 2.45544 6.10122 2.63317 5.96668C2.57078 5.74099 2.48995 5.52081 2.3915 5.30835L2.38138 5.28381C2.10806 4.62152 1.77252 3.80842 2.25817 3.14168C2.74984 2.46668 3.64984 2.53335 4.37484 2.60002C4.60511 2.61623 4.83623 2.61623 5.0665 2.60002C5.12014 2.4621 5.18786 2.19033 5.23729 1.99199L5.24984 1.94168C5.40817 1.23335 5.6165 0.350017 6.42484 0.0916841C7.21442 -0.160658 7.85293 0.390079 8.38697 0.850705L8.42484 0.883351C8.60528 1.04716 8.79746 1.19756 8.99984 1.33335C9.20221 1.19756 9.39439 1.04716 9.57484 0.883351L9.59005 0.870239C10.129 0.405856 10.7906 -0.164235 11.5748 0.0916841C12.3665 0.350017 12.5915 1.23335 12.7498 1.94168L12.7624 1.99199C12.8118 2.19033 12.8795 2.4621 12.9332 2.60002C13.1634 2.61623 13.3946 2.61623 13.6248 2.60002C14.3498 2.53335 15.2415 2.45835 15.7415 3.14168C16.2286 3.80734 15.9011 4.59951 15.6297 5.25631L15.6082 5.30835C15.5097 5.52081 15.4289 5.74099 15.3665 5.96668C15.5442 6.10122 15.7308 6.22371 15.9248 6.33335C16.5498 6.66668 17.3332 7.16668 17.3332 8.00002C17.3332 8.83335 16.5498 9.33335 15.9248 9.70835ZM12.0165 5.26668C12.3739 5.5529 12.4335 6.07388 12.1498 6.43335L8.8165 10.6C8.67047 10.7859 8.45236 10.901 8.2165 10.9167H8.1665C7.945 10.918 7.7321 10.831 7.57484 10.675L5.90817 9.00835C5.5814 8.68158 5.5814 8.15179 5.90817 7.82502C6.23494 7.49825 6.76474 7.49825 7.0915 7.82502L8.09984 8.83335L10.8498 5.40002C11.136 5.04259 11.657 4.98305 12.0165 5.26668ZM15.0665 7.71668C15.1915 7.79168 15.3665 7.90002 15.5082 8.00002C15.3665 8.10002 15.1915 8.20835 15.0915 8.22502C14.5148 8.47248 14.0492 8.92329 13.7832 9.49168C13.6619 10.1183 13.7746 10.7676 14.0998 11.3167L14.2748 11.7584H13.7915C13.171 11.6228 12.5223 11.7176 11.9665 12.025C11.4891 12.4561 11.1916 13.0511 11.1332 13.6917C11.1206 13.7422 11.1067 13.7998 11.0922 13.8605C11.0683 13.9602 11.0424 14.0683 11.0165 14.1667C10.8915 14.075 10.7582 13.9584 10.6665 13.875C10.2312 13.3964 9.64103 13.0865 8.99984 13C8.35373 13.1185 7.77138 13.4644 7.35817 13.975C7.2665 14.0584 7.13317 14.175 7.00817 14.2667C6.99564 14.2191 6.9801 14.1692 6.9645 14.1191C6.92819 14.0026 6.8915 13.8849 6.8915 13.7917C6.83312 13.1511 6.53559 12.5561 6.05817 12.125C5.50237 11.8176 4.85371 11.7228 4.23317 11.8584H3.74984L3.92484 11.4167C4.25011 10.8676 4.36278 10.2183 4.2415 9.59168C3.97551 9.02329 3.50988 8.57248 2.93317 8.32502C2.80817 8.25002 2.63317 8.14168 2.4915 8.04168C2.63317 7.94168 2.80817 7.83335 2.93317 7.75835C3.50988 7.51089 3.97551 7.06008 4.2415 6.49168C4.36278 5.8651 4.25011 5.21579 3.92484 4.66668L3.69984 4.22502H4.18317C4.80371 4.36057 5.45237 4.26579 6.00817 3.95835C6.48559 3.52731 6.78312 2.93224 6.8415 2.29168C6.85412 2.24121 6.86793 2.18358 6.88249 2.12285C6.90638 2.02314 6.93228 1.91509 6.95817 1.81668C7.08317 1.90835 7.2165 2.02502 7.30817 2.10835C7.74982 2.57162 8.33923 2.86633 8.97484 2.94168C9.61044 2.86633 10.1999 2.57162 10.6415 2.10835C10.7332 2.02502 10.8665 1.90835 10.9915 1.81668C11.004 1.86429 11.0196 1.91415 11.0352 1.96423C11.0715 2.08073 11.1082 2.19844 11.1082 2.29168C11.1666 2.93224 11.4641 3.52731 11.9415 3.95835C12.4973 4.26579 13.146 4.36057 13.7665 4.22502H14.2498L14.0748 4.66668C13.7597 5.20422 13.6473 5.83683 13.7582 6.45002C14.0242 7.01842 14.4898 7.46922 15.0665 7.71668Z" fill="#828282"/>
</svg>
