<svg width="20" height="20" viewBox="0 0 20 20" fill="none" xmlns="http://www.w3.org/2000/svg">
<path fill-rule="evenodd" clip-rule="evenodd" d="M17.4998 9.16666H16.6082C16.2256 6.14983 13.85 3.77423 10.8332 3.39166V2.49999C10.8332 2.03975 10.4601 1.66666 9.99984 1.66666C9.5396 1.66666 9.1665 2.03975 9.1665 2.49999V3.39166C6.14968 3.77423 3.77408 6.14983 3.3915 9.16666H2.49984C2.0396 9.16666 1.6665 9.53975 1.6665 9.99999C1.6665 10.4602 2.0396 10.8333 2.49984 10.8333H3.3915C3.77408 13.8501 6.14968 16.2258 9.1665 16.6083V17.5C9.1665 17.9602 9.5396 18.3333 9.99984 18.3333C10.4601 18.3333 10.8332 17.9602 10.8332 17.5V16.6083C13.85 16.2258 16.2256 13.8501 16.6082 10.8333H17.4998C17.9601 10.8333 18.3332 10.4602 18.3332 9.99999C18.3332 9.53975 17.9601 9.16666 17.4998 9.16666ZM7.49984 9.99999C7.49984 8.61928 8.61912 7.49999 9.99984 7.49999C11.3805 7.49999 12.4998 8.61928 12.4998 9.99999C12.4998 11.3807 11.3805 12.5 9.99984 12.5C8.61912 12.5 7.49984 11.3807 7.49984 9.99999ZM9.1665 9.99999C9.1665 10.4602 9.5396 10.8333 9.99984 10.8333C10.4601 10.8333 10.8332 10.4602 10.8332 9.99999C10.8332 9.53975 10.4601 9.16666 9.99984 9.16666C9.5396 9.16666 9.1665 9.53975 9.1665 9.99999ZM9.99984 14.0917C10.4601 14.0917 10.8332 14.4648 10.8332 14.925C12.9279 14.569 14.5689 12.9281 14.9248 10.8333C14.4646 10.8333 14.0915 10.4602 14.0915 9.99999C14.0915 9.53975 14.4646 9.16666 14.9248 9.16666C14.5689 7.07193 12.9279 5.43096 10.8332 5.07499C10.8332 5.53523 10.4601 5.90832 9.99984 5.90832C9.5396 5.90832 9.1665 5.53523 9.1665 5.07499C7.07178 5.43096 5.4308 7.07193 5.07484 9.16666C5.53507 9.16666 5.90817 9.53975 5.90817 9.99999C5.90817 10.4602 5.53507 10.8333 5.07484 10.8333C5.4308 12.9281 7.07178 14.569 9.1665 14.925C9.1665 14.4648 9.5396 14.0917 9.99984 14.0917Z" fill="#828282"/>
</svg>
