<svg width="20" height="20" viewBox="0 0 20 20" fill="none" xmlns="http://www.w3.org/2000/svg">
<path fill-rule="evenodd" clip-rule="evenodd" d="M4.1665 1.66669H6.6665C8.04722 1.66669 9.1665 2.78598 9.1665 4.16669V6.66669C9.1665 8.0474 8.04722 9.16669 6.6665 9.16669H4.1665C2.78579 9.16669 1.6665 8.0474 1.6665 6.66669V4.16669C1.6665 2.78598 2.78579 1.66669 4.1665 1.66669ZM6.6665 7.50002C7.12674 7.50002 7.49984 7.12692 7.49984 6.66669V4.16669C7.49984 3.70645 7.12674 3.33335 6.6665 3.33335H4.1665C3.70627 3.33335 3.33317 3.70645 3.33317 4.16669V6.66669C3.33317 7.12692 3.70627 7.50002 4.1665 7.50002H6.6665ZM6.6665 10.8334H4.1665C2.78579 10.8334 1.6665 11.9526 1.6665 13.3334V15.8334C1.6665 17.2141 2.78579 18.3334 4.1665 18.3334H6.6665C8.04722 18.3334 9.1665 17.2141 9.1665 15.8334V13.3334C9.1665 11.9526 8.04722 10.8334 6.6665 10.8334ZM6.6665 16.6667C7.12674 16.6667 7.49984 16.2936 7.49984 15.8334V13.3334C7.49984 12.8731 7.12674 12.5 6.6665 12.5H4.1665C3.70627 12.5 3.33317 12.8731 3.33317 13.3334V15.8334C3.33317 16.2936 3.70627 16.6667 4.1665 16.6667H6.6665ZM15.8332 10.8334H13.3332C11.9525 10.8334 10.8332 11.9526 10.8332 13.3334V15.8334C10.8332 17.2141 11.9525 18.3334 13.3332 18.3334H15.8332C17.2139 18.3334 18.3332 17.2141 18.3332 15.8334V13.3334C18.3332 11.9526 17.2139 10.8334 15.8332 10.8334ZM15.8332 16.6667C16.2934 16.6667 16.6665 16.2936 16.6665 15.8334V13.3334C16.6665 12.8731 16.2934 12.5 15.8332 12.5H13.3332C12.8729 12.5 12.4998 12.8731 12.4998 13.3334V15.8334C12.4998 16.2936 12.8729 16.6667 13.3332 16.6667H15.8332ZM15.8332 1.66669H13.3332C11.9525 1.66669 10.8332 2.78598 10.8332 4.16669V6.66669C10.8332 8.0474 11.9525 9.16669 13.3332 9.16669H15.8332C17.2139 9.16669 18.3332 8.0474 18.3332 6.66669V4.16669C18.3332 2.78598 17.2139 1.66669 15.8332 1.66669ZM15.8332 7.50002C16.2934 7.50002 16.6665 7.12692 16.6665 6.66669V4.16669C16.6665 3.70645 16.2934 3.33335 15.8332 3.33335H13.3332C12.8729 3.33335 12.4998 3.70645 12.4998 4.16669V6.66669C12.4998 7.12692 12.8729 7.50002 13.3332 7.50002H15.8332Z" fill="#828282"/>
</svg>
