<svg width="20" height="20" viewBox="0 0 20 20" fill="none" xmlns="http://www.w3.org/2000/svg">
<path d="M15.0002 15C15.3474 15 15.6424 14.8783 15.8852 14.635C16.1285 14.3922 16.2502 14.0972 16.2502 13.75C16.2502 13.4028 16.1285 13.1078 15.8852 12.865C15.6424 12.6216 15.3474 12.5 15.0002 12.5C14.6529 12.5 14.3579 12.6216 14.1152 12.865C13.8718 13.1078 13.7502 13.4028 13.7502 13.75C13.7502 14.0972 13.8718 14.3922 14.1152 14.635C14.3579 14.8783 14.6529 15 15.0002 15ZM15.0002 17.5C15.4168 17.5 15.8057 17.4028 16.1668 17.2083C16.5279 17.0139 16.8266 16.743 17.0627 16.3958C16.7432 16.2014 16.4099 16.0591 16.0627 15.9691C15.7154 15.8786 15.3613 15.8333 15.0002 15.8333C14.6391 15.8333 14.2849 15.8786 13.9377 15.9691C13.5904 16.0591 13.2571 16.2014 12.9377 16.3958C13.1738 16.743 13.4724 17.0139 13.8335 17.2083C14.1946 17.4028 14.5835 17.5 15.0002 17.5ZM7.50016 6.66665H12.5002V4.99998C12.5002 4.30554 12.2571 3.71526 11.771 3.22915C11.2849 2.74304 10.6946 2.49998 10.0002 2.49998C9.30572 2.49998 8.71544 2.74304 8.22933 3.22915C7.74322 3.71526 7.50016 4.30554 7.50016 4.99998V6.66665ZM10.2085 18.3333H5.00016C4.54183 18.3333 4.14961 18.1703 3.8235 17.8441C3.49683 17.5175 3.3335 17.125 3.3335 16.6666V8.33331C3.3335 7.87498 3.49683 7.48248 3.8235 7.15581C4.14961 6.8297 4.54183 6.66665 5.00016 6.66665H5.8335V4.99998C5.8335 3.8472 6.23989 2.86442 7.05266 2.05165C7.86489 1.23942 8.84738 0.833313 10.0002 0.833313C11.1529 0.833313 12.1357 1.23942 12.9485 2.05165C13.7607 2.86442 14.1668 3.8472 14.1668 4.99998V6.66665H15.0002C15.4585 6.66665 15.851 6.8297 16.1777 7.15581C16.5038 7.48248 16.6668 7.87498 16.6668 8.33331V9.41665C16.4168 9.33331 16.1563 9.27081 15.8852 9.22915C15.6146 9.18748 15.3196 9.16665 15.0002 9.16665V8.33331H5.00016V16.6666H9.41683C9.52794 17 9.63905 17.2883 9.75016 17.5316C9.86127 17.7744 10.0141 18.0416 10.2085 18.3333ZM15.0002 19.1666C13.8474 19.1666 12.8649 18.7605 12.0527 17.9483C11.2399 17.1355 10.8335 16.1528 10.8335 15C10.8335 13.8472 11.2399 12.8644 12.0527 12.0516C12.8649 11.2394 13.8474 10.8333 15.0002 10.8333C16.1529 10.8333 17.1357 11.2394 17.9485 12.0516C18.7607 12.8644 19.1668 13.8472 19.1668 15C19.1668 16.1528 18.7607 17.1355 17.9485 17.9483C17.1357 18.7605 16.1529 19.1666 15.0002 19.1666Z" fill="#828282"/>
</svg>
