<svg width="20" height="20" viewBox="0 0 20 20" fill="none" xmlns="http://www.w3.org/2000/svg">
<path fill-rule="evenodd" clip-rule="evenodd" d="M15.7501 10.1667L15.1584 7.49999L15.7501 4.83332C15.8432 4.41046 15.5969 3.98675 15.1834 3.85832L12.5751 3.02499L10.5668 1.18332C10.2471 0.886891 9.75305 0.886891 9.43342 1.18332L7.42509 3.03332L4.81676 3.86666C4.4071 3.99484 4.16182 4.41325 4.25009 4.83332L4.84176 7.49999L4.25009 10.1667C4.157 10.5895 4.40326 11.0132 4.81676 11.1417L6.66676 11.725V17.5C6.66833 17.8057 6.83718 18.086 7.10669 18.2303C7.3762 18.3746 7.7031 18.3598 7.95842 18.1917L10.0001 16.8333L12.0418 18.1917C12.2971 18.3598 12.624 18.3746 12.8935 18.2303C13.163 18.086 13.3318 17.8057 13.3334 17.5V11.725L15.1834 11.1417C15.5969 11.0132 15.8432 10.5895 15.7501 10.1667ZM9.54176 15.1667L8.33342 16V12.8L9.43342 13.8167C9.58838 13.9575 9.79069 14.0349 10.0001 14.0333C10.2088 14.031 10.4098 13.9541 10.5668 13.8167L11.6668 12.8V15.9417L10.4584 15.1667C10.1803 14.9835 9.81987 14.9835 9.54176 15.1667ZM11.5834 10.6333C11.6757 10.5517 11.7834 10.4894 11.9001 10.45L13.9584 9.78332L13.4834 7.68332C13.4585 7.56237 13.4585 7.43761 13.4834 7.31666L13.9584 5.21666L11.9001 4.57499C11.7834 4.53557 11.6757 4.47324 11.5834 4.39165L10.0001 2.93332L8.41676 4.39165C8.32446 4.47324 8.2168 4.53557 8.10009 4.57499L6.04176 5.21666L6.51676 7.31666C6.54168 7.43761 6.54168 7.56237 6.51676 7.68332L6.04176 9.78332L8.10009 10.425C8.2168 10.4644 8.32446 10.5267 8.41676 10.6083L10.0001 12.0667L11.5834 10.6333Z" fill="#828282"/>
</svg>
