<svg width="20" height="20" viewBox="0 0 20 20" fill="none" xmlns="http://www.w3.org/2000/svg">
<path fill-rule="evenodd" clip-rule="evenodd" d="M14.1665 5.83335C14.1665 3.53217 12.301 1.66669 9.99984 1.66669C7.69865 1.66669 5.83317 3.53217 5.83317 5.83335C5.83317 8.13454 7.69865 10 9.99984 10H9.1665C5.02437 10 1.6665 13.3579 1.6665 17.5C1.6665 17.9603 2.0396 18.3334 2.49984 18.3334H17.4998C17.9601 18.3334 18.3332 17.9603 18.3332 17.5C18.3332 13.3579 14.9753 10 10.8332 10H9.99984C11.1049 10 12.1647 9.56103 12.9461 8.77963C13.7275 7.99823 14.1665 6.93842 14.1665 5.83335ZM9.1665 11.6667C6.26619 11.6659 3.80583 13.7961 3.3915 16.6667H16.6082C16.1938 13.7961 13.7335 11.6659 10.8332 11.6667H9.1665ZM7.49984 5.83335C7.49984 7.21407 8.61912 8.33335 9.99984 8.33335C10.6629 8.33335 11.2988 8.06996 11.7676 7.60112C12.2364 7.13228 12.4998 6.49639 12.4998 5.83335C12.4998 4.45264 11.3805 3.33335 9.99984 3.33335C8.61912 3.33335 7.49984 4.45264 7.49984 5.83335Z" fill="#828282"/>
</svg>
