<svg width="20" height="20" viewBox="0 0 20 20" fill="none" xmlns="http://www.w3.org/2000/svg">
<path fill-rule="evenodd" clip-rule="evenodd" d="M4.1665 1.66666H15.8332C17.2139 1.66666 18.3332 2.78594 18.3332 4.16666V9.83332C18.3259 12.789 16.5834 15.4647 13.8832 16.6667L10.3415 18.2333C10.1242 18.331 9.87548 18.331 9.65817 18.2333L6.1165 16.6667C3.41629 15.4647 1.6738 12.789 1.6665 9.83332V4.16666C1.6665 2.78594 2.78579 1.66666 4.1665 1.66666ZM13.1998 15.1667C15.3083 14.2307 16.6672 12.1402 16.6665 9.83332V4.16666C16.6665 3.70642 16.2934 3.33332 15.8332 3.33332H4.1665C3.70627 3.33332 3.33317 3.70642 3.33317 4.16666V9.83332C3.33251 12.1402 4.69137 14.2307 6.79984 15.1667L9.99984 16.5917L13.1998 15.1667ZM13.4582 7.55832L11.5998 7.27499L10.7665 5.48332C10.6311 5.18619 10.3347 4.9955 10.0082 4.9955C9.68165 4.9955 9.38522 5.18619 9.24984 5.48332L8.4165 7.27499L6.55817 7.55832C6.25103 7.60563 5.99573 7.81991 5.89588 8.1142C5.79603 8.40848 5.86823 8.73388 6.08317 8.95832L7.45817 10.3667L7.13317 12.3667C7.09532 12.6764 7.23365 12.9813 7.49163 13.1568C7.74961 13.3323 8.08401 13.3489 8.35817 13.2L10.0248 12.2833L11.6915 13.2C11.8144 13.2663 11.9519 13.3007 12.0915 13.3C12.3377 13.3032 12.5727 13.1973 12.7334 13.0108C12.8942 12.8244 12.9643 12.5764 12.9248 12.3333L12.5998 10.3333L13.9748 8.92499C14.1898 8.70055 14.262 8.37515 14.1621 8.08086C14.0623 7.78658 13.807 7.5723 13.4998 7.52499L13.4582 7.55832ZM10.8415 10.225C10.7985 9.96393 10.882 9.69795 11.0665 9.50832L11.5998 8.95832L10.8998 8.84999C10.6271 8.80755 10.393 8.6328 10.2748 8.38332L9.99984 7.79166L9.6915 8.38332C9.57332 8.6328 9.33927 8.80755 9.0665 8.84999L8.3665 8.95832L8.89984 9.50832C9.08436 9.69795 9.16786 9.96393 9.12484 10.225L9.00817 10.9417L9.5665 10.6333C9.82434 10.4845 10.142 10.4845 10.3998 10.6333L10.9582 10.9417L10.8415 10.225Z" fill="#828282"/>
</svg>
