<svg width="20" height="20" viewBox="0 0 20 20" fill="none" xmlns="http://www.w3.org/2000/svg">
<path fill-rule="evenodd" clip-rule="evenodd" d="M17.4998 10.175C17.5038 10.1167 17.5038 10.0582 17.4998 9.99998V3.98331C17.4725 2.67943 16.3955 1.6434 15.0915 1.66664H4.07484C2.77087 1.6434 1.69385 2.67943 1.6665 3.98331V14.35C1.69385 15.6539 2.77087 16.6899 4.07484 16.6666H9.1665C9.21364 16.6707 9.26103 16.6707 9.30817 16.6666C11.1008 18.9287 14.3878 19.3093 16.6498 17.5166C18.9119 15.724 19.2925 12.437 17.4998 10.175ZM4.07484 15C3.69414 15.0149 3.36832 14.7293 3.33317 14.35V3.98331C3.36832 3.60395 3.69414 3.3184 4.07484 3.33331H15.0915C15.4722 3.3184 15.798 3.60395 15.8332 3.98331V8.76664C14.2199 7.88393 12.2607 7.91741 10.6785 8.85475C9.0963 9.79209 8.1257 11.4943 8.12484 13.3333C8.12609 13.9001 8.21895 14.4629 8.39984 15H4.07484ZM9.7915 13.3333C9.7915 15.2893 11.3772 16.875 13.3332 16.875C15.2873 16.8704 16.8703 15.2874 16.8748 13.3333C16.8748 11.3773 15.2892 9.79164 13.3332 9.79164C11.3772 9.79164 9.7915 11.3773 9.7915 13.3333ZM13.3332 6.66664H5.83317C5.37293 6.66664 4.99984 6.29355 4.99984 5.83331C4.99984 5.37307 5.37293 4.99998 5.83317 4.99998H13.3332C13.7934 4.99998 14.1665 5.37307 14.1665 5.83331C14.1665 6.29355 13.7934 6.66664 13.3332 6.66664ZM14.6998 14.1666C15.1601 14.1666 15.5332 13.7935 15.5332 13.3333C15.5332 12.8731 15.1601 12.5 14.6998 12.5H14.1665V11.9666C14.1665 11.5064 13.7934 11.1333 13.3332 11.1333C12.8729 11.1333 12.4998 11.5064 12.4998 11.9666V12.5H11.9665C11.5063 12.5 11.1332 12.8731 11.1332 13.3333C11.1332 13.7935 11.5063 14.1666 11.9665 14.1666H12.4998V14.7C12.4998 15.1602 12.8729 15.5333 13.3332 15.5333C13.7934 15.5333 14.1665 15.1602 14.1665 14.7V14.1666H14.6998Z" fill="#828282"/>
</svg>
